<?xml version="1.0" encoding="UTF-8" standalone="no"?>
<!DOCTYPE svg PUBLIC "-//W3C//DTD SVG 1.1//EN" "http://www.w3.org/Graphics/SVG/1.1/DTD/svg11.dtd">
<svg width="100%" height="100%" viewBox="0 0 1042 281" version="1.1" xmlns="http://www.w3.org/2000/svg" xmlns:xlink="http://www.w3.org/1999/xlink" xml:space="preserve" xmlns:serif="http://www.serif.com/" style="fill-rule:evenodd;clip-rule:evenodd;stroke-linecap:round;stroke-linejoin:round;stroke-miterlimit:1.5;">
    <g transform="matrix(0.64,0,0,0.64,-176.864,-197.316)">
        <g transform="matrix(1.40168,0,0,1.40168,-2656.68,-1299.94)">
            <circle cx="2249.02" cy="1303.88" r="150.322" style="fill:white;stroke:black;stroke-width:12.38px;"/>
        </g>
        <g transform="matrix(4.70478,0,0,4.70478,-6423.53,-4089.4)">
            <path d="M1451.23,978.237L1454.36,978.237C1459.56,978.237 1462.17,975.633 1462.17,970.424C1462.17,969.562 1462.06,968.801 1461.85,968.142C1461.64,967.482 1461.39,966.933 1461.09,966.494C1460.8,966.054 1460.36,965.684 1459.76,965.383C1459.17,965.082 1458.63,964.85 1458.14,964.687C1457.65,964.524 1456.95,964.406 1456.05,964.333C1455.15,964.26 1454.4,964.215 1453.79,964.199C1453.19,964.182 1452.34,964.174 1451.23,964.174L1451.23,978.237ZM1451.23,998.549L1454.36,998.549C1457.06,998.549 1459.04,997.927 1460.29,996.682C1461.54,995.436 1462.17,993.455 1462.17,990.737C1462.17,988.019 1461.54,986.037 1460.29,984.792C1459.04,983.547 1457.06,982.924 1454.36,982.924L1451.23,982.924L1451.23,998.549ZM1444.98,1003.24L1444.98,959.487L1454.36,959.487C1456.37,959.487 1458.18,959.698 1459.78,960.122C1461.37,960.545 1462.77,961.188 1463.96,962.05C1465.16,962.913 1466.08,964.052 1466.72,965.468C1467.36,966.884 1467.68,968.536 1467.68,970.424C1467.68,973.159 1467.11,975.238 1465.95,976.662C1464.8,978.086 1463.01,979.132 1460.61,979.799C1463.21,980.662 1465.16,981.927 1466.46,983.596C1467.77,985.264 1468.42,987.644 1468.42,990.737C1468.42,994.594 1467.3,997.642 1465.06,999.88C1462.82,1002.12 1459.78,1003.24 1455.92,1003.24L1444.98,1003.24Z" style="fill-rule:nonzero;"/>
            <path d="M1472.96,1003.24L1472.96,959.487L1479.21,959.487L1479.21,978.237L1490.15,978.237L1490.15,959.487L1496.4,959.487L1496.4,1003.24L1490.15,1003.24L1490.15,982.924L1479.21,982.924L1479.21,1003.24L1472.96,1003.24Z" style="fill-rule:nonzero;"/>
        </g>
        <g transform="matrix(0.505676,0,0,0.505676,129.805,-355.027)">
            <g transform="matrix(466.489,0,0,466.489,1297.77,1947.65)">
                <path d="M0.188,-0.5L0.25,-0.5C0.354,-0.5 0.406,-0.552 0.406,-0.656C0.406,-0.674 0.404,-0.689 0.4,-0.702C0.396,-0.715 0.391,-0.726 0.385,-0.735C0.379,-0.744 0.37,-0.751 0.358,-0.757C0.346,-0.763 0.335,-0.768 0.326,-0.771C0.316,-0.774 0.302,-0.777 0.284,-0.778C0.266,-0.78 0.251,-0.78 0.239,-0.781C0.227,-0.781 0.21,-0.781 0.188,-0.781L0.188,-0.5ZM0.188,-0.094L0.25,-0.094C0.304,-0.094 0.344,-0.106 0.369,-0.131C0.394,-0.156 0.406,-0.196 0.406,-0.25C0.406,-0.304 0.394,-0.344 0.369,-0.369C0.344,-0.394 0.304,-0.406 0.25,-0.406L0.188,-0.406L0.188,-0.094ZM0.063,-0L0.063,-0.875L0.25,-0.875C0.29,-0.875 0.326,-0.871 0.358,-0.862C0.39,-0.854 0.418,-0.841 0.442,-0.824C0.466,-0.806 0.484,-0.784 0.497,-0.755C0.51,-0.727 0.517,-0.694 0.517,-0.656C0.517,-0.602 0.505,-0.56 0.482,-0.531C0.459,-0.503 0.423,-0.482 0.375,-0.469C0.427,-0.451 0.466,-0.426 0.492,-0.393C0.518,-0.359 0.531,-0.312 0.531,-0.25C0.531,-0.173 0.509,-0.112 0.464,-0.067C0.419,-0.022 0.358,-0 0.281,-0L0.063,-0Z" style="fill:white;fill-rule:nonzero;"/>
            </g>
            <g transform="matrix(466.489,0,0,466.489,1558.81,1947.65)">
                <path d="M0.377,-0.05C0.348,-0.011 0.3,0.009 0.233,0.009C0.166,0.009 0.118,-0.011 0.089,-0.05C0.06,-0.089 0.045,-0.145 0.045,-0.219L0.045,-0.406C0.045,-0.48 0.06,-0.536 0.089,-0.575C0.118,-0.614 0.166,-0.634 0.233,-0.634C0.3,-0.634 0.348,-0.614 0.377,-0.575C0.406,-0.536 0.42,-0.48 0.42,-0.406L0.42,-0.219C0.42,-0.145 0.406,-0.089 0.377,-0.05ZM0.21,-0.098C0.216,-0.095 0.224,-0.094 0.233,-0.094C0.242,-0.094 0.249,-0.095 0.256,-0.098C0.263,-0.1 0.268,-0.103 0.273,-0.107C0.277,-0.111 0.281,-0.116 0.284,-0.124C0.287,-0.131 0.289,-0.138 0.291,-0.143C0.292,-0.149 0.293,-0.157 0.294,-0.167C0.295,-0.177 0.295,-0.186 0.295,-0.192C0.295,-0.198 0.295,-0.207 0.295,-0.219L0.295,-0.406C0.295,-0.418 0.295,-0.427 0.295,-0.433C0.295,-0.439 0.295,-0.448 0.294,-0.458C0.293,-0.468 0.292,-0.476 0.291,-0.482C0.289,-0.487 0.287,-0.494 0.284,-0.501C0.281,-0.509 0.277,-0.514 0.273,-0.518C0.268,-0.522 0.263,-0.525 0.256,-0.527C0.249,-0.53 0.242,-0.531 0.233,-0.531C0.224,-0.531 0.216,-0.53 0.21,-0.527C0.203,-0.525 0.198,-0.522 0.193,-0.518C0.189,-0.514 0.185,-0.509 0.182,-0.501C0.179,-0.494 0.177,-0.487 0.175,-0.482C0.174,-0.476 0.173,-0.468 0.172,-0.458C0.171,-0.448 0.171,-0.439 0.171,-0.433C0.17,-0.427 0.17,-0.418 0.17,-0.406L0.17,-0.219C0.17,-0.207 0.17,-0.198 0.171,-0.192C0.171,-0.186 0.171,-0.177 0.172,-0.167C0.173,-0.157 0.174,-0.149 0.175,-0.143C0.177,-0.138 0.179,-0.131 0.182,-0.124C0.185,-0.116 0.189,-0.111 0.193,-0.107C0.198,-0.103 0.203,-0.1 0.21,-0.098Z" style="fill:white;fill-rule:nonzero;"/>
            </g>
            <g transform="matrix(466.489,0,0,466.489,1776.11,1947.65)">
                <path d="M0.23,0.009C0.181,0.009 0.146,-0.004 0.123,-0.029C0.101,-0.054 0.09,-0.092 0.089,-0.143L0.089,-0.531L0.026,-0.531L0.026,-0.625L0.089,-0.625L0.089,-0.844L0.214,-0.844L0.214,-0.625L0.308,-0.625L0.308,-0.531L0.214,-0.531L0.214,-0.167C0.214,-0.141 0.217,-0.123 0.224,-0.111C0.231,-0.1 0.245,-0.094 0.266,-0.094C0.275,-0.094 0.289,-0.095 0.308,-0.099L0.308,0.003C0.276,0.007 0.251,0.009 0.23,0.009Z" style="fill:white;fill-rule:nonzero;"/>
            </g>
            <g transform="matrix(466.489,0,0,466.489,1935.55,1947.65)">
                <path d="M0.057,-0L0.057,-0.875L0.182,-0.875L0.182,-0.558C0.201,-0.575 0.216,-0.587 0.228,-0.596C0.239,-0.605 0.255,-0.614 0.276,-0.622C0.297,-0.63 0.319,-0.634 0.342,-0.634C0.369,-0.634 0.391,-0.624 0.407,-0.604C0.424,-0.585 0.432,-0.561 0.432,-0.533L0.432,-0L0.307,-0L0.307,-0.469C0.307,-0.49 0.304,-0.506 0.299,-0.516C0.294,-0.526 0.282,-0.531 0.264,-0.531C0.239,-0.531 0.211,-0.519 0.182,-0.495L0.182,-0L0.057,-0Z" style="fill:white;fill-rule:nonzero;"/>
            </g>
            <g transform="matrix(466.489,0,0,466.489,2161.51,1947.65)">
                <path d="M0.229,-0.094C0.237,-0.094 0.246,-0.096 0.254,-0.102C0.262,-0.107 0.269,-0.112 0.273,-0.117C0.277,-0.122 0.282,-0.128 0.289,-0.136C0.29,-0.138 0.29,-0.139 0.291,-0.14L0.291,-0.313C0.286,-0.309 0.277,-0.303 0.265,-0.296C0.253,-0.288 0.243,-0.282 0.236,-0.278C0.229,-0.273 0.221,-0.266 0.21,-0.258C0.2,-0.25 0.193,-0.242 0.187,-0.234C0.181,-0.226 0.177,-0.217 0.172,-0.206C0.168,-0.195 0.166,-0.183 0.166,-0.171C0.166,-0.12 0.187,-0.094 0.229,-0.094ZM0.166,0.009C0.131,0.009 0.102,-0.006 0.077,-0.036C0.053,-0.066 0.041,-0.1 0.041,-0.138C0.041,-0.168 0.046,-0.196 0.056,-0.221C0.067,-0.245 0.077,-0.265 0.089,-0.28C0.1,-0.295 0.119,-0.31 0.146,-0.326C0.173,-0.342 0.193,-0.353 0.207,-0.358C0.22,-0.364 0.244,-0.374 0.278,-0.387C0.284,-0.389 0.288,-0.391 0.291,-0.393L0.291,-0.438C0.291,-0.469 0.287,-0.494 0.278,-0.511C0.269,-0.528 0.253,-0.537 0.229,-0.537C0.207,-0.537 0.192,-0.53 0.182,-0.515C0.173,-0.5 0.168,-0.48 0.167,-0.454C0.166,-0.45 0.166,-0.445 0.166,-0.438L0.041,-0.438C0.042,-0.497 0.058,-0.545 0.091,-0.581C0.124,-0.616 0.17,-0.634 0.229,-0.634C0.287,-0.634 0.333,-0.616 0.366,-0.58C0.399,-0.544 0.416,-0.496 0.416,-0.438L0.416,-0.156C0.416,-0.091 0.421,-0.039 0.432,-0L0.308,-0L0.291,-0.094C0.285,-0.081 0.279,-0.071 0.275,-0.063C0.271,-0.056 0.265,-0.047 0.257,-0.037C0.25,-0.026 0.242,-0.018 0.234,-0.012C0.226,-0.007 0.216,-0.002 0.205,0.002C0.193,0.007 0.18,0.009 0.166,0.009Z" style="fill:white;fill-rule:nonzero;"/>
            </g>
            <g transform="matrix(466.489,0,0,466.489,2473.79,1947.65)">
                <path d="M0.063,-0L0.063,-0.875L0.188,-0.875L0.188,-0.5L0.406,-0.5L0.406,-0.875L0.531,-0.875L0.531,-0L0.406,-0L0.406,-0.406L0.188,-0.406L0.188,-0L0.063,-0Z" style="fill:white;fill-rule:nonzero;"/>
            </g>
            <g transform="matrix(466.489,0,0,466.489,2750.77,1947.65)">
                <path d="M0.377,-0.05C0.348,-0.011 0.3,0.009 0.233,0.009C0.166,0.009 0.118,-0.011 0.089,-0.05C0.06,-0.089 0.045,-0.145 0.045,-0.219L0.045,-0.406C0.045,-0.48 0.06,-0.536 0.089,-0.575C0.118,-0.614 0.166,-0.634 0.233,-0.634C0.3,-0.634 0.348,-0.614 0.377,-0.575C0.406,-0.536 0.42,-0.48 0.42,-0.406L0.42,-0.219C0.42,-0.145 0.406,-0.089 0.377,-0.05ZM0.21,-0.098C0.216,-0.095 0.224,-0.094 0.233,-0.094C0.242,-0.094 0.249,-0.095 0.256,-0.098C0.263,-0.1 0.268,-0.103 0.273,-0.107C0.277,-0.111 0.281,-0.116 0.284,-0.124C0.287,-0.131 0.289,-0.138 0.291,-0.143C0.292,-0.149 0.293,-0.157 0.294,-0.167C0.295,-0.177 0.295,-0.186 0.295,-0.192C0.295,-0.198 0.295,-0.207 0.295,-0.219L0.295,-0.406C0.295,-0.418 0.295,-0.427 0.295,-0.433C0.295,-0.439 0.295,-0.448 0.294,-0.458C0.293,-0.468 0.292,-0.476 0.291,-0.482C0.289,-0.487 0.287,-0.494 0.284,-0.501C0.281,-0.509 0.277,-0.514 0.273,-0.518C0.268,-0.522 0.263,-0.525 0.256,-0.527C0.249,-0.53 0.242,-0.531 0.233,-0.531C0.224,-0.531 0.216,-0.53 0.21,-0.527C0.203,-0.525 0.198,-0.522 0.193,-0.518C0.189,-0.514 0.185,-0.509 0.182,-0.501C0.179,-0.494 0.177,-0.487 0.175,-0.482C0.174,-0.476 0.173,-0.468 0.172,-0.458C0.171,-0.448 0.171,-0.439 0.171,-0.433C0.17,-0.427 0.17,-0.418 0.17,-0.406L0.17,-0.219C0.17,-0.207 0.17,-0.198 0.171,-0.192C0.171,-0.186 0.171,-0.177 0.172,-0.167C0.173,-0.157 0.174,-0.149 0.175,-0.143C0.177,-0.138 0.179,-0.131 0.182,-0.124C0.185,-0.116 0.189,-0.111 0.193,-0.107C0.198,-0.103 0.203,-0.1 0.21,-0.098Z" style="fill:white;fill-rule:nonzero;"/>
            </g>
            <g transform="matrix(466.489,0,0,466.489,2968.07,1947.65)">
                <path d="M0.057,-0L0.057,-0.625L0.182,-0.625L0.182,-0.554C0.227,-0.607 0.279,-0.634 0.338,-0.634C0.368,-0.634 0.39,-0.627 0.404,-0.614C0.418,-0.601 0.427,-0.58 0.432,-0.551C0.453,-0.578 0.475,-0.599 0.499,-0.613C0.522,-0.627 0.552,-0.634 0.588,-0.634C0.599,-0.634 0.608,-0.633 0.616,-0.631C0.625,-0.628 0.632,-0.626 0.638,-0.623C0.644,-0.62 0.65,-0.616 0.655,-0.61C0.659,-0.604 0.663,-0.598 0.666,-0.593C0.669,-0.588 0.672,-0.581 0.674,-0.571C0.676,-0.562 0.678,-0.554 0.679,-0.548C0.68,-0.542 0.681,-0.533 0.681,-0.521C0.682,-0.508 0.682,-0.499 0.682,-0.492L0.682,-0L0.557,-0L0.557,-0.464C0.557,-0.475 0.557,-0.483 0.557,-0.489C0.556,-0.495 0.555,-0.501 0.553,-0.509C0.552,-0.517 0.549,-0.522 0.544,-0.526C0.539,-0.529 0.533,-0.531 0.526,-0.531C0.513,-0.531 0.5,-0.529 0.488,-0.524C0.475,-0.519 0.465,-0.514 0.458,-0.509C0.451,-0.504 0.443,-0.498 0.432,-0.489L0.432,-0L0.307,-0L0.307,-0.483C0.307,-0.487 0.307,-0.493 0.305,-0.501C0.304,-0.508 0.303,-0.514 0.301,-0.517C0.299,-0.521 0.296,-0.524 0.292,-0.527C0.287,-0.53 0.282,-0.531 0.276,-0.531C0.245,-0.531 0.214,-0.518 0.182,-0.492L0.182,-0L0.057,-0Z" style="fill:white;fill-rule:nonzero;"/>
            </g>
            <g transform="matrix(466.489,0,0,466.489,3310.65,1947.65)">
                <path d="M0.234,0.009C0.204,0.009 0.177,0.004 0.155,-0.007C0.133,-0.017 0.115,-0.031 0.102,-0.048C0.089,-0.064 0.078,-0.086 0.07,-0.112C0.062,-0.138 0.056,-0.164 0.053,-0.191C0.05,-0.217 0.048,-0.247 0.047,-0.282C0.046,-0.31 0.046,-0.337 0.047,-0.364C0.048,-0.397 0.051,-0.426 0.054,-0.451C0.057,-0.476 0.063,-0.501 0.072,-0.524C0.08,-0.548 0.091,-0.568 0.105,-0.583C0.118,-0.598 0.136,-0.611 0.158,-0.62C0.18,-0.629 0.206,-0.634 0.235,-0.634C0.262,-0.634 0.285,-0.63 0.305,-0.623C0.326,-0.616 0.343,-0.606 0.356,-0.592C0.37,-0.577 0.381,-0.562 0.39,-0.544C0.399,-0.527 0.406,-0.506 0.41,-0.482C0.415,-0.457 0.418,-0.433 0.42,-0.409C0.421,-0.385 0.422,-0.358 0.422,-0.327L0.422,-0.313L0.172,-0.313L0.172,-0.261C0.172,-0.249 0.172,-0.237 0.172,-0.224C0.173,-0.211 0.173,-0.198 0.174,-0.186C0.174,-0.174 0.176,-0.162 0.179,-0.151C0.182,-0.139 0.186,-0.13 0.19,-0.121C0.194,-0.113 0.2,-0.106 0.208,-0.101C0.215,-0.096 0.224,-0.094 0.235,-0.094C0.248,-0.094 0.259,-0.096 0.267,-0.101C0.276,-0.106 0.282,-0.114 0.286,-0.124C0.29,-0.134 0.293,-0.144 0.294,-0.154C0.296,-0.164 0.297,-0.177 0.297,-0.192L0.297,-0.219L0.421,-0.219L0.421,-0.194C0.418,-0.127 0.402,-0.077 0.372,-0.042C0.342,-0.008 0.296,0.009 0.234,0.009ZM0.172,-0.375L0.296,-0.375L0.296,-0.413C0.296,-0.429 0.295,-0.444 0.293,-0.456C0.292,-0.468 0.289,-0.481 0.285,-0.493C0.281,-0.506 0.275,-0.515 0.266,-0.521C0.258,-0.528 0.247,-0.531 0.235,-0.531C0.222,-0.531 0.212,-0.528 0.203,-0.521C0.194,-0.514 0.188,-0.504 0.184,-0.491C0.18,-0.479 0.177,-0.466 0.175,-0.454C0.174,-0.441 0.173,-0.426 0.172,-0.409L0.172,-0.375Z" style="fill:white;fill-rule:nonzero;"/>
            </g>
        </g>
    </g>
</svg>
