<svg 
  width="100%" 
  height="100%" 
  viewBox="0 0 281 281" 
  version="1.1" 
  xmlns="http://www.w3.org/2000/svg"
  role="img"
>
  <title>BothaHome Logo</title>
  
  <style>
    :root {
      /* Light theme (default) */
      --logo-outline-color: #333;
      --logo-letters-color: #333;
    }

    @media (prefers-color-scheme: dark) {
      :root {
        /* Dark theme override */
        --logo-outline-color: #eee;
        --logo-letters-color: #eee;
      }
    }

    /* Apply the variables to the logo elements */
    #logo-circle {
      stroke: var(--logo-outline-color);
      transition: stroke 0.3s;
    }
    
    #logo-letters {
      fill: var(--logo-letters-color);
      transition: fill 0.3s;
    }
  </style>
  
  <g transform="matrix(0.64,0,0,0.64,-193.596,-1113.37)">
      <g transform="matrix(1.40168,0,0,1.40168,-2630.54,131.386)">
          <circle id="logo-circle" cx="2249.02" cy="1303.88" r="150.322" stroke-width="12.38px" fill="none"/>
      </g>
      <g id="logo-letters" transform="matrix(4.70478,0,0,4.70478,-6397.39,-2658.08)">
          <path d="M1451.23,978.237L1454.36,978.237C1459.56,978.237 1462.17,975.633 1462.17,970.424C1462.17,969.562 1462.06,968.801 1461.85,968.142C1461.64,967.482 1461.39,966.933 1461.09,966.494C1460.8,966.054 1460.36,965.684 1459.76,965.383C1459.17,965.082 1458.63,964.85 1458.14,964.687C1457.65,964.524 1456.95,964.406 1456.05,964.333C1455.15,964.26 1454.4,964.215 1453.79,964.199C1453.19,964.182 1452.34,964.174 1451.23,964.174L1451.23,978.237ZM1451.23,998.549L1454.36,998.549C1457.06,998.549 1459.04,997.927 1460.29,996.682C1461.54,995.436 1462.17,993.455 1462.17,990.737C1462.17,988.019 1461.54,986.037 1460.29,984.792C1459.04,983.547 1457.06,982.924 1454.36,982.924L1451.23,982.924L1451.23,998.549ZM1444.98,1003.24L1444.98,959.487L1454.36,959.487C1456.37,959.487 1458.18,959.698 1459.78,960.122C1461.37,960.545 1462.77,961.188 1463.96,962.05C1465.16,962.913 1466.08,964.052 1466.72,965.468C1467.36,966.884 1467.68,968.536 1467.68,970.424C1467.68,973.159 1467.11,975.238 1465.95,976.662C1464.8,978.086 1463.01,979.132 1460.61,979.799C1463.21,980.662 1465.16,981.927 1466.46,983.596C1467.77,985.264 1468.42,987.644 1468.42,990.737C1468.42,994.594 1467.3,997.642 1465.06,999.88C1462.82,1002.12 1459.78,1003.24 1455.92,1003.24L1444.98,1003.24Z" fill-rule="nonzero"/>
          <path d="M1472.96,1003.24L1472.96,959.487L1479.21,959.487L1479.21,978.237L1490.15,978.237L1490.15,959.487L1496.4,959.487L1496.4,1003.24L1490.15,1003.24L1490.15,982.924L1479.21,982.924L1479.21,1003.24L1472.96,1003.24Z" fill-rule="nonzero"/>
      </g>
  </g>
</svg>